<svg xmlns="http://www.w3.org/2000/svg" width="50" height="50" fill="none"><g clip-path="url(#a)"><path fill="#D9A460" d="M25 0C16.1 0 7.9 2.4.8 6.7L25 47.1 49.2 6.7C42.2 2.4 34 0 25 0Z"/><path fill="#F2D383" d="M25 6.8a40 40 0 0 0-20.7 5.7l13.3 22.3v13.4a1.8 1.8 0 1 0 3.7 0v-7.3L25 47l8.4-14v5.6a1.8 1.8 0 0 0 3.6 0V27l1.7-2.8v5.2a1.8 1.8 0 0 0 3.7 0V18l3.3-5.6A40 40 0 0 0 25 6.8Z"/><path fill="#B3874F" d="M25 6.8a40 40 0 0 0-20.7 5.7l1 1.7a38.1 38.1 0 0 1 39.4 0l1-1.7A40 40 0 0 0 25 6.8Z"/><path fill="#E94F3D" d="M31 26.3a6.8 6.8 0 0 0-1.6 13.4l6.7-11a6.8 6.8 0 0 0-5.2-2.4ZM15 16.7a6.8 6.8 0 0 0-6 3.6l6 10a6.8 6.8 0 1 0 0-13.6ZM31.4 23.9a6.8 6.8 0 1 0 0-13.7 6.8 6.8 0 0 0 0 13.7ZM21 7a40 40 0 0 0-13 3.6A6.8 6.8 0 0 0 21 7Z"/><path fill="#C24232" d="M21 7a40 40 0 0 0-13 3.6c.2.6.5 1.2 1 1.7A38 38 0 0 1 21 9a6.9 6.9 0 0 0 0-2Z"/><path fill="#B3874F" d="M4.3 7.5a.7.7 0 1 0 0-1.3.7.7 0 0 0 0 1.3ZM9.6 8.8a.7.7 0 1 0 0-1.3.7.7 0 0 0 0 1.3ZM15.4 4.4a.7.7 0 1 0 0-1.3.7.7 0 0 0 0 1.3ZM22.9 5.7a.7.7 0 1 0 0-1.3.7.7 0 0 0 0 1.3ZM30.7 3a.7.7 0 1 0 0-1.2.7.7 0 0 0 0 1.3ZM34.6 6.9a.7.7 0 1 0 0-1.3.7.7 0 0 0 0 1.3ZM46.4 8.1a.7.7 0 1 0 0-1.3.7.7 0 0 0 0 1.3ZM40.9 6.8a.7.7 0 1 0 0-1.3.7.7 0 0 0 0 1.3Z"/></g><defs><clipPath id="a"><path fill="#fff" d="M0 0h50v50H0z"/></clipPath></defs></svg>